<?xml version="1.0"?>
<svg xmlns="http://www.w3.org/2000/svg" x="0px" y="0px"
	 width="612px" height="792px" viewBox="0 0 612 792">
<g>
	<path d="M336.207,624.669c0,22.439,0,45.045,0,67.983c-19.481,0-38.552,0-58.219,0
		c0-22.711,0-45.434,0-67.366c-16.274-3.539-32.045-6.111-47.311-10.455c-40.418-11.501-72.967-33.939-94.327-70.963
		c-8.355-14.48-14.301-29.943-18.428-46.695c33.373-7.645,66.618-15.26,99.382-22.765c3.905,8.602,6.934,17.108,11.405,24.773
		c12.895,22.1,33.321,33.274,57.868,37.425c19.664,3.325,39.381,3.182,58.842-1.759c12.752-3.237,23.873-9.441,31.918-20.057
		c16.425-21.673,9.373-49.916-15.989-60.32c-14.961-6.137-30.75-10.715-46.559-14.227c-32.265-7.168-64.474-14.32-94.978-27.42
		c-15.186-6.521-29.829-14.148-41.704-25.956c-19.539-19.427-30.846-43.17-34.642-70.263c-4.359-31.109-0.375-61.193,15.128-88.869
		c21.469-38.324,54.25-62.129,96.729-72.699c7.244-1.802,14.648-2.967,22.503-4.53c0-18.746,0-37.67,0-56.822
		c19.595,0,38.678,0,58.276,0c0,18.823,0,37.41,0,56.399c70.179,6.933,122.143,38.383,147.324,107.682
		c-30.581,10.208-60.912,20.333-91.721,30.617c-1.637-3.769-3.105-7.379-4.753-10.905c-12.88-27.577-35.334-41.138-64.96-43.284
		c-17.314-1.254-34.619-0.521-50.96,6.576c-14.4,6.254-22.049,17.196-22.42,32.965c-0.354,15.063,5.735,26.82,18.849,34.42
		c12.964,7.514,27.453,10.788,41.919,13.813c32.656,6.829,65.345,13.552,96.765,25.062c44.515,16.306,74.198,47.215,85.919,93.104
		c10.931,42.793,0.853,82.257-24.684,118.054c-24.216,33.946-58.132,52.121-97.937,60.732
		C358.607,621.263,347.578,622.728,336.207,624.669z"/>
</g>
</svg>
